<svg xmlns="http://www.w3.org/2000/svg" viewBox="0 0 600 600" role="img" aria-label="SUSPENSION">
  <defs>
  <pattern id="ck" width="48" height="48" patternUnits="userSpaceOnUse">
    <rect width="48" height="48" fill="#0a0a0b"/>
    <rect width="24" height="24" fill="#FFD100"/>
    <rect x="24" y="24" width="24" height="24" fill="#FFD100"/>
  </pattern>
    <linearGradient id="g" x1="0" y1="0" x2="1" y2="1">
      <stop offset="0%" stop-color="#1c1c20"/>
      <stop offset="100%" stop-color="#0a0a0b"/>
    </linearGradient>
  </defs>
  <rect width="600" height="600" fill="url(#g)"/>
  <rect width="600" height="18" y="582" fill="url(#ck)" opacity="0.85"/>
  <g stroke="#E4002B" stroke-width="6" opacity="0.5">
    <line x1="-20" y1="120" x2="200" y2="120"/>
    <line x1="-20" y1="150" x2="150" y2="150"/>
  </g>
  <g transform="translate(300 280) scale(7)" fill="none" stroke="#FFD100" stroke-width="1.4" stroke-linecap="round" stroke-linejoin="round">
    <g transform="translate(-12 -12)"><path d="M12 2v4M12 18v4"/><path d="M9 6h6M9 18h6"/><path d="M10 6c0 2 4 2 4 4s-4 2-4 4 4 2 4 4"/></g>
  </g>
  <text x="40" y="540" font-family="Oswald, sans-serif" font-size="26" font-weight="700" fill="#ffffff" opacity="0.85" letter-spacing="1">SUSPENSION</text>
</svg>